<svg width="22" height="22" viewBox="0 0 22 22" fill="none" xmlns="http://www.w3.org/2000/svg">
<path d="M15.1237 8.98419C15.1991 8.91393 15.2596 8.8292 15.3015 8.73506C15.3435 8.64092 15.366 8.5393 15.3678 8.43626C15.3696 8.33321 15.3507 8.23086 15.3121 8.1353C15.2735 8.03974 15.216 7.95293 15.1432 7.88006C15.0703 7.80718 14.9835 7.74973 14.8879 7.71113C14.7924 7.67253 14.69 7.65358 14.587 7.6554C14.4839 7.65721 14.3823 7.67977 14.2882 7.72171C14.194 7.76366 14.1093 7.82414 14.039 7.89954L9.46508 12.4735L7.9609 10.9693C7.81542 10.8337 7.623 10.7599 7.42418 10.7634C7.22536 10.767 7.03566 10.8475 6.89505 10.9881C6.75444 11.1287 6.6739 11.3184 6.67039 11.5172C6.66689 11.7161 6.74069 11.9085 6.87625 12.054L8.92276 14.1005C9.06665 14.2442 9.26171 14.3249 9.46508 14.3249C9.66846 14.3249 9.86351 14.2442 10.0074 14.1005L15.1237 8.98419Z" fill="black"/>
<path fill-rule="evenodd" clip-rule="evenodd" d="M11 0C4.92493 0 0 4.92493 0 11C0 17.0751 4.92493 22 11 22C17.0751 22 22 17.0751 22 11C22 4.92493 17.0751 0 11 0ZM1.53488 11C1.53488 8.48969 2.5321 6.08221 4.30715 4.30715C6.08221 2.5321 8.48969 1.53488 11 1.53488C13.5103 1.53488 15.9178 2.5321 17.6928 4.30715C19.4679 6.08221 20.4651 8.48969 20.4651 11C20.4651 13.5103 19.4679 15.9178 17.6928 17.6928C15.9178 19.4679 13.5103 20.4651 11 20.4651C8.48969 20.4651 6.08221 19.4679 4.30715 17.6928C2.5321 15.9178 1.53488 13.5103 1.53488 11Z" fill="black"/>
</svg>
