<svg width="285" height="45" viewBox="0 0 285 45" fill="none" xmlns="http://www.w3.org/2000/svg">
<path d="M23.9062 16.875C23.9062 16.502 23.7581 16.1444 23.4944 15.8806C23.2306 15.6169 22.873 15.4688 22.5 15.4688C22.127 15.4688 21.7694 15.6169 21.5056 15.8806C21.2419 16.1444 21.0938 16.502 21.0938 16.875V21.0938H16.875C16.502 21.0938 16.1444 21.2419 15.8806 21.5056C15.6169 21.7694 15.4688 22.127 15.4688 22.5C15.4688 22.873 15.6169 23.2306 15.8806 23.4944C16.1444 23.7581 16.502 23.9062 16.875 23.9062H21.0938V28.125C21.0938 28.498 21.2419 28.8556 21.5056 29.1194C21.7694 29.3831 22.127 29.5312 22.5 29.5312C22.873 29.5312 23.2306 29.3831 23.4944 29.1194C23.7581 28.8556 23.9062 28.498 23.9062 28.125V23.9062H28.125C28.498 23.9062 28.8556 23.7581 29.1194 23.4944C29.3831 23.2306 29.5312 22.873 29.5312 22.5C29.5312 22.127 29.3831 21.7694 29.1194 21.5056C28.8556 21.2419 28.498 21.0938 28.125 21.0938H23.9062V16.875Z" fill="black"/>
<path fill-rule="evenodd" clip-rule="evenodd" d="M22.5 2.34375C11.3681 2.34375 2.34375 11.3681 2.34375 22.5C2.34375 33.6319 11.3681 42.6562 22.5 42.6562C33.6319 42.6562 42.6562 33.6319 42.6562 22.5C42.6562 11.3681 33.6319 2.34375 22.5 2.34375ZM5.15625 22.5C5.15625 17.9002 6.98353 13.4887 10.2361 10.2361C13.4887 6.98353 17.9002 5.15625 22.5 5.15625C27.0998 5.15625 31.5113 6.98353 34.7639 10.2361C38.0165 13.4887 39.8438 17.9002 39.8438 22.5C39.8438 27.0998 38.0165 31.5113 34.7639 34.7639C31.5113 38.0165 27.0998 39.8438 22.5 39.8438C17.9002 39.8438 13.4887 38.0165 10.2361 34.7639C6.98353 31.5113 5.15625 27.0998 5.15625 22.5Z" fill="black"/>
<path d="M137.713 28.8694C137.565 28.7593 137.396 28.6796 137.217 28.6346C137.038 28.5897 136.852 28.5805 136.669 28.6076C136.486 28.6347 136.311 28.6975 136.152 28.7924C135.994 28.8874 135.855 29.0126 135.745 29.1609C135.635 29.3093 135.556 29.4779 135.511 29.6571C135.466 29.8362 135.457 30.0225 135.484 30.2052C135.511 30.388 135.573 30.5636 135.668 30.722C135.763 30.8805 135.889 31.0187 136.037 31.1288C137.903 32.524 140.17 33.279 142.5 33.2813C144.83 33.279 147.097 32.524 148.963 31.1288C149.115 31.02 149.243 30.8823 149.341 30.7235C149.439 30.5646 149.504 30.388 149.533 30.2037C149.561 30.0195 149.553 29.8314 149.509 29.6503C149.464 29.4692 149.384 29.2988 149.273 29.149C149.162 28.9992 149.022 28.8729 148.862 28.7776C148.702 28.6823 148.524 28.6198 148.339 28.5938C148.155 28.5678 147.967 28.5787 147.786 28.626C147.606 28.6734 147.437 28.7561 147.289 28.8694C145.907 29.9054 144.227 30.4665 142.5 30.4688C140.774 30.4661 139.094 29.905 137.713 28.8694Z" fill="black"/>
<path fill-rule="evenodd" clip-rule="evenodd" d="M142.5 2.34375C141.141 2.34375 139.899 2.71875 138.544 3.35062C137.228 3.96375 135.709 4.86937 133.804 6.00375L131.074 7.62937C128.976 8.88 127.305 9.87563 126.038 10.8281C124.731 11.8125 123.75 12.825 123.113 14.1581C122.471 15.4913 122.299 16.8881 122.353 18.5175C122.408 20.0944 122.683 22.0125 123.028 24.4163L123.578 28.2262C124.022 31.32 124.376 33.7744 124.903 35.685C125.447 37.6537 126.219 39.2194 127.613 40.4175C129.004 41.6175 130.669 42.1519 132.705 42.4087C134.685 42.6562 137.181 42.6562 140.329 42.6562H144.671C147.821 42.6562 150.315 42.6562 152.295 42.4087C154.331 42.1519 155.996 41.6175 157.388 40.4194C158.781 39.2194 159.553 37.6556 160.097 35.685C160.624 33.7725 160.978 31.32 161.423 28.2262L161.97 24.4163C162.317 22.0125 162.593 20.0944 162.645 18.5175C162.701 16.8863 162.529 15.4913 161.889 14.1581C161.25 12.825 160.269 11.8125 158.963 10.8281C157.697 9.87563 156.024 8.88 153.926 7.62937L151.196 6.00375C149.291 4.86937 147.773 3.96375 146.458 3.35062C145.101 2.71687 143.859 2.34375 142.5 2.34375ZM135.18 8.45813C137.162 7.27688 138.561 6.44625 139.733 5.89875C140.874 5.36625 141.696 5.15625 142.5 5.15625C143.306 5.15625 144.126 5.36625 145.268 5.89875C146.439 6.44625 147.836 7.27688 149.82 8.45813L152.417 10.005C154.601 11.3062 156.141 12.225 157.273 13.0763C158.374 13.9069 158.979 14.5931 159.354 15.3731C159.728 16.1531 159.883 17.0494 159.836 18.4219C159.788 19.8281 159.536 21.5925 159.176 24.0956L158.651 27.7275C158.19 30.9412 157.86 33.2175 157.386 34.9369C156.923 36.6169 156.364 37.59 155.554 38.2875C154.742 38.9869 153.69 39.3994 151.944 39.6187C150.161 39.8419 147.842 39.8438 144.576 39.8438H140.426C137.158 39.8438 134.839 39.8419 133.056 39.6187C131.312 39.3994 130.258 38.9869 129.446 38.2875C128.636 37.59 128.078 36.6169 127.614 34.9369C127.14 33.2175 126.808 30.9412 126.347 27.7275L125.824 24.0956C125.464 21.5925 125.213 19.8263 125.164 18.4219C125.117 17.0494 125.273 16.1531 125.648 15.3731C126.023 14.5931 126.624 13.9069 127.729 13.0763C128.859 12.225 130.399 11.3062 132.583 10.005L135.18 8.45813Z" fill="black"/>
<path fill-rule="evenodd" clip-rule="evenodd" d="M255.469 16.875C255.469 15.0102 256.21 13.2218 257.528 11.9032C258.847 10.5845 260.635 9.84375 262.5 9.84375C264.365 9.84375 266.153 10.5845 267.472 11.9032C268.79 13.2218 269.531 15.0102 269.531 16.875C269.531 18.7398 268.79 20.5282 267.472 21.8468C266.153 23.1655 264.365 23.9062 262.5 23.9062C260.635 23.9062 258.847 23.1655 257.528 21.8468C256.21 20.5282 255.469 18.7398 255.469 16.875ZM262.5 12.6562C261.381 12.6562 260.308 13.1007 259.517 13.8919C258.726 14.6831 258.281 15.7561 258.281 16.875C258.281 17.9939 258.726 19.0669 259.517 19.8581C260.308 20.6493 261.381 21.0938 262.5 21.0938C263.619 21.0938 264.692 20.6493 265.483 19.8581C266.274 19.0669 266.719 17.9939 266.719 16.875C266.719 15.7561 266.274 14.6831 265.483 13.8919C264.692 13.1007 263.619 12.6562 262.5 12.6562Z" fill="black"/>
<path fill-rule="evenodd" clip-rule="evenodd" d="M242.344 22.5C242.344 11.3681 251.368 2.34375 262.5 2.34375C273.632 2.34375 282.656 11.3681 282.656 22.5C282.656 33.6319 273.632 42.6562 262.5 42.6562C251.368 42.6562 242.344 33.6319 242.344 22.5ZM262.5 5.15625C259.074 5.15641 255.724 6.17135 252.874 8.07301C250.024 9.97468 247.801 12.6779 246.486 15.8415C245.171 19.0052 244.822 22.4875 245.484 25.8492C246.145 29.2109 247.788 32.3014 250.204 34.7306C250.541 32.9063 251.207 31.1869 252.54 29.8031C254.537 27.7331 257.726 26.7188 262.5 26.7188C267.274 26.7188 270.463 27.7331 272.458 29.8031C273.793 31.1869 274.457 32.9062 274.796 34.7325C277.213 32.3034 278.856 29.2128 279.518 25.8507C280.18 22.4887 279.831 19.0059 278.516 15.8419C277.2 12.6778 274.977 9.97436 272.127 8.0726C269.276 6.17085 265.927 5.15604 262.5 5.15625ZM272.239 36.8531C272.048 34.5806 271.554 32.9156 270.435 31.755C269.216 30.4931 266.961 29.5312 262.5 29.5312C258.039 29.5312 255.784 30.4931 254.565 31.755C253.446 32.9175 252.953 34.5806 252.761 36.855C255.633 38.8082 259.027 39.8498 262.5 39.8438C265.973 39.8491 269.367 38.8069 272.239 36.8531Z" fill="black"/>
</svg>
