<svg width="48" height="48" viewBox="0 0 48 48" fill="none" xmlns="http://www.w3.org/2000/svg">
<path fill-rule="evenodd" clip-rule="evenodd" d="M24 2.5C12.126 2.5 2.5 12.126 2.5 24C2.5 35.874 12.126 45.5 24 45.5C35.874 45.5 45.5 35.874 45.5 24C45.5 12.126 35.874 2.5 24 2.5ZM5.5 24C5.5 19.0935 7.4491 14.3879 10.9185 10.9185C14.3879 7.4491 19.0935 5.5 24 5.5C28.9065 5.5 33.612 7.4491 37.0815 10.9185C40.5509 14.3879 42.5 19.0935 42.5 24C42.5 28.9065 40.5509 33.612 37.0815 37.0815C33.612 40.5509 28.9065 42.5 24 42.5C19.0935 42.5 14.3879 40.5509 10.9185 37.0815C7.4491 33.612 5.5 28.9065 5.5 24Z" fill="#D5582F"/>
</svg>
