<svg width="45" height="45" viewBox="0 0 45 45" fill="none" xmlns="http://www.w3.org/2000/svg">
<path fill-rule="evenodd" clip-rule="evenodd" d="M22.155 43.31C33.2866 43.31 42.31 34.2866 42.31 23.155C42.31 12.0234 33.2866 3 22.155 3C11.0234 3 2 12.0234 2 23.155C2 34.2866 11.0234 43.31 22.155 43.31ZM23.6666 17.1085C23.6666 16.7076 23.5074 16.3231 23.2239 16.0396C22.9404 15.7561 22.5559 15.5969 22.155 15.5969C21.7541 15.5969 21.3696 15.7561 21.0861 16.0396C20.8026 16.3231 20.6434 16.7076 20.6434 17.1085V21.6434H16.1085C15.7076 21.6434 15.3231 21.8026 15.0396 22.0861C14.7561 22.3696 14.5969 22.7541 14.5969 23.155C14.5969 23.5559 14.7561 23.9404 15.0396 24.2239C15.3231 24.5074 15.7076 24.6666 16.1085 24.6666H20.6434V29.2015C20.6434 29.6024 20.8026 29.9869 21.0861 30.2704C21.3696 30.5539 21.7541 30.7131 22.155 30.7131C22.5559 30.7131 22.9404 30.5539 23.2239 30.2704C23.5074 29.9869 23.6666 29.6024 23.6666 29.2015V24.6666H28.2015C28.6024 24.6666 28.9869 24.5074 29.2704 24.2239C29.5539 23.9404 29.7131 23.5559 29.7131 23.155C29.7131 22.7541 29.5539 22.3696 29.2704 22.0861C28.9869 21.8026 28.6024 21.6434 28.2015 21.6434H23.6666V17.1085Z" fill="#D5582F"/>
</svg>
