<svg width="14" height="14" viewBox="0 0 14 14" fill="none" xmlns="http://www.w3.org/2000/svg">
<path fill-rule="evenodd" clip-rule="evenodd" d="M11.4158 9.03467C11.3784 9.07832 11.3328 9.11417 11.2815 9.14017C11.2302 9.16616 11.1744 9.1818 11.117 9.18619C11.0597 9.19058 11.0021 9.18363 10.9475 9.16574C10.8928 9.14785 10.8423 9.11937 10.7987 9.08192L7 5.82634L3.20133 9.08192C3.11277 9.15302 3.00003 9.18688 2.88695 9.17636C2.77387 9.16585 2.66931 9.11177 2.59538 9.02556C2.52144 8.93936 2.48392 8.82778 2.49076 8.71441C2.49759 8.60105 2.54824 8.49479 2.632 8.41809L6.71533 4.91809C6.79462 4.85015 6.89559 4.81281 7 4.81281C7.10441 4.81281 7.20538 4.85015 7.28467 4.91809L11.368 8.41809C11.456 8.49362 11.5104 8.60099 11.5192 8.7166C11.5281 8.83222 11.4907 8.94662 11.4152 9.03467H11.4158Z" fill="#D5582F" stroke="#D5582F"/>
</svg>
