<svg width="16" height="14" viewBox="0 0 16 14" fill="none" xmlns="http://www.w3.org/2000/svg">
<path fill-rule="evenodd" clip-rule="evenodd" d="M12.9725 9.03467C12.93 9.07832 12.8781 9.11417 12.8198 9.14017C12.7616 9.16616 12.6981 9.1818 12.6329 9.18619C12.5678 9.19058 12.5023 9.18363 12.4403 9.16574C12.3782 9.14785 12.3207 9.11937 12.2712 9.08192L7.95449 5.82634L3.63782 9.08192C3.53718 9.15302 3.40907 9.18688 3.28057 9.17636C3.15207 9.16585 3.03325 9.11177 2.94923 9.02556C2.86522 8.93936 2.82259 8.82778 2.83035 8.71441C2.83812 8.60105 2.89567 8.49479 2.99085 8.41809L7.631 4.91809C7.7211 4.85015 7.83584 4.81281 7.95449 4.81281C8.07314 4.81281 8.18788 4.85015 8.27797 4.91809L12.9181 8.41809C13.0181 8.49362 13.0799 8.60099 13.09 8.7166C13.1 8.83222 13.0575 8.94662 12.9718 9.03467H12.9725Z" fill="#D5582F" stroke="#D5582F"/>
</svg>
