<svg width="22" height="22" viewBox="0 0 22 22" fill="none" xmlns="http://www.w3.org/2000/svg">
<path fill-rule="evenodd" clip-rule="evenodd" d="M11 1.53488C8.48969 1.53488 6.08221 2.5321 4.30715 4.30715C2.5321 6.08221 1.53488 8.48969 1.53488 11C1.53488 13.5103 2.5321 15.9178 4.30715 17.6928C6.08221 19.4679 8.48969 20.4651 11 20.4651C13.5103 20.4651 15.9178 19.4679 17.6928 17.6928C19.4679 15.9178 20.4651 13.5103 20.4651 11C20.4651 8.48969 19.4679 6.08221 17.6928 4.30715C15.9178 2.5321 13.5103 1.53488 11 1.53488ZM0 11C0 4.92493 4.92493 0 11 0C17.0751 0 22 4.92493 22 11C22 17.0751 17.0751 22 11 22C4.92493 22 0 17.0751 0 11ZM11.4809 7.38791C11.6248 7.24419 11.8199 7.16347 12.0233 7.16347C12.2266 7.16347 12.4217 7.24419 12.5656 7.38791L15.6353 10.4577C15.7791 10.6016 15.8598 10.7966 15.8598 11C15.8598 11.2034 15.7791 11.3984 15.6353 11.5423L12.5656 14.6121C12.4953 14.6875 12.4106 14.748 12.3165 14.7899C12.2223 14.8319 12.1207 14.8544 12.0177 14.8562C11.9146 14.8581 11.8123 14.8391 11.7167 14.8005C11.6211 14.7619 11.5343 14.7044 11.4614 14.6316C11.3886 14.5587 11.3311 14.4719 11.2925 14.3763C11.2539 14.2808 11.235 14.1784 11.2368 14.0754C11.2386 13.9723 11.2612 13.8707 11.3031 13.7766C11.3451 13.6824 11.4055 13.5977 11.4809 13.5274L13.2409 11.7674H6.90698C6.70344 11.7674 6.50824 11.6866 6.36431 11.5427C6.22039 11.3987 6.13953 11.2035 6.13953 11C6.13953 10.7965 6.22039 10.6013 6.36431 10.4573C6.50824 10.3134 6.70344 10.2326 6.90698 10.2326H13.2409L11.4809 8.47256C11.3372 8.32866 11.2565 8.13361 11.2565 7.93023C11.2565 7.72686 11.3372 7.5318 11.4809 7.38791Z" fill="black"/>
</svg>
