<svg width="22" height="22" viewBox="0 0 22 22" fill="none" xmlns="http://www.w3.org/2000/svg">
<path fill-rule="evenodd" clip-rule="evenodd" d="M11 1.53488C8.48969 1.53488 6.08221 2.5321 4.30715 4.30715C2.5321 6.08221 1.53488 8.48969 1.53488 11C1.53488 13.5103 2.5321 15.9178 4.30715 17.6928C6.08221 19.4679 8.48969 20.4651 11 20.4651C13.5103 20.4651 15.9178 19.4679 17.6928 17.6928C19.4679 15.9178 20.4651 13.5103 20.4651 11C20.4651 8.48969 19.4679 6.08221 17.6928 4.30715C15.9178 2.5321 13.5103 1.53488 11 1.53488ZM0 11C0 4.92493 4.92493 0 11 0C17.0751 0 22 4.92493 22 11C22 17.0751 17.0751 22 11 22C4.92493 22 0 17.0751 0 11ZM10.5191 7.38791C10.6628 7.5318 10.7435 7.72686 10.7435 7.93023C10.7435 8.13361 10.6628 8.32866 10.5191 8.47256L8.75907 10.2326H15.093C15.2966 10.2326 15.4918 10.3134 15.6357 10.4573C15.7796 10.6013 15.8605 10.7965 15.8605 11C15.8605 11.2035 15.7796 11.3987 15.6357 11.5427C15.4918 11.6866 15.2966 11.7674 15.093 11.7674H8.75907L10.5191 13.5274C10.5945 13.5977 10.6549 13.6824 10.6969 13.7766C10.7388 13.8707 10.7614 13.9723 10.7632 14.0754C10.765 14.1784 10.7461 14.2808 10.7075 14.3763C10.6689 14.4719 10.6114 14.5587 10.5386 14.6316C10.4657 14.7044 10.3789 14.7619 10.2833 14.8005C10.1877 14.8391 10.0854 14.8581 9.98235 14.8562C9.8793 14.8544 9.77768 14.8319 9.68354 14.7899C9.5894 14.748 9.50468 14.6875 9.43442 14.6121L6.36465 11.5423C6.22093 11.3984 6.14021 11.2034 6.14021 11C6.14021 10.7966 6.22093 10.6016 6.36465 10.4577L9.43442 7.38791C9.57831 7.24419 9.77337 7.16347 9.97674 7.16347C10.1801 7.16347 10.3752 7.24419 10.5191 7.38791Z" fill="black"/>
</svg>
