<svg width="16" height="14" viewBox="0 0 16 14" fill="none" xmlns="http://www.w3.org/2000/svg">
<path fill-rule="evenodd" clip-rule="evenodd" d="M2.90719 4.96533C2.94927 4.92168 3.00062 4.88583 3.0583 4.85983C3.11597 4.83384 3.17885 4.8182 3.24333 4.81381C3.30781 4.80942 3.37263 4.81637 3.43409 4.83426C3.49554 4.85215 3.55243 4.88063 3.6015 4.91808L7.875 8.17366L12.1485 4.91808C12.2481 4.84698 12.375 4.81312 12.5022 4.82364C12.6294 4.83415 12.747 4.88823 12.8302 4.97444C12.9134 5.06064 12.9556 5.17222 12.9479 5.28559C12.9402 5.39895 12.8832 5.50521 12.789 5.58191L8.19525 9.08191C8.10605 9.14985 7.99246 9.18719 7.875 9.18719C7.75754 9.18719 7.64395 9.14985 7.55475 9.08191L2.961 5.58191C2.86203 5.50638 2.80084 5.39901 2.79087 5.2834C2.7809 5.16778 2.82297 5.05338 2.90784 4.96533H2.90719Z" fill="#D5582F" stroke="#D5582F"/>
</svg>
